<?xml version="1.0" encoding="iso-8859-1"?>
<!-- Uploaded to: SVG Repo, www.svgrepo.com, Generator: SVG Repo Mixer Tools -->
<!DOCTYPE svg PUBLIC "-//W3C//DTD SVG 1.1//EN" "http://www.w3.org/Graphics/SVG/1.1/DTD/svg11.dtd">
<svg xmlns="http://www.w3.org/2000/svg" xmlns:xlink="http://www.w3.org/1999/xlink" version="1.1" id="Layer_1"  width="512" height="512" viewBox="0 0 370 370" xml:space="preserve">
<g>
	<path style="fill:#FFAF64;" d="M185,65.416h-0.002c-42.733,0-77.5,34.767-77.5,77.5v26.668H185h77.498v-26.668   C262.498,100.184,227.732,65.418,185,65.416z"/>
	<path style="fill:#FFA326;" d="M185,65.416v104.168h77.498v-26.668C262.498,100.184,227.732,65.418,185,65.416z"/>
	<g>
		<path style="fill:#FFDBAA;" d="M366.869,165.414c-2.84-3.677-7.224-5.83-11.869-5.83h-92.5h-77.498H185h-77.5H15    c-4.646,0-9.029,2.153-11.87,5.83c-2.841,3.676-3.816,8.461-2.645,12.957l30,115c1.724,6.604,7.688,11.213,14.515,11.213h140    h0.002H325c6.826,0,12.791-4.608,14.516-11.213l30-115C370.686,173.875,369.71,169.09,366.869,165.414z"/>
		<path style="fill:#FFC86D;" d="M366.869,165.414c-2.84-3.677-7.224-5.83-11.869-5.83h-92.5h-77.498H185v145h0.002H325    c6.826,0,12.791-4.608,14.516-11.213l30-115C370.686,173.875,369.71,169.09,366.869,165.414z"/>
	</g>
	<path style="fill:#FF509D;" d="M353.37,225.373c-3.707-7.409-12.72-10.412-20.127-6.703c-7.15,3.578-12.317,6.162-24.277,6.162   c-11.954,0.001-17.126-2.584-24.282-6.164c-8.316-4.157-18.663-9.331-37.699-9.331h-0.001h-0.001   c-19.039,0-29.387,5.175-37.702,9.333c-7.157,3.578-12.325,6.162-24.276,6.162c0,0-0.002,0-0.003,0H185h-0.001   c-11.955,0.001-17.126-2.584-24.283-6.164c-8.313-4.157-18.661-9.331-37.696-9.331h-0.002h-0.001h-0.001   c-19.037,0-29.385,5.175-37.7,9.333c-7.155,3.578-12.325,6.162-24.274,6.162h-0.006c-11.951,0-17.122-2.584-24.279-6.161   l-0.008-0.004c-7.408-3.704-16.416-0.697-20.12,6.714c-3.703,7.409-0.695,16.421,6.715,20.125   c8.313,4.155,18.661,9.326,37.692,9.326c0,0,0.004,0,0.007,0c19.03,0,29.377-5.174,37.69-9.33   c7.158-3.579,12.329-6.165,24.285-6.165c11.953,0,17.124,2.586,24.281,6.164c8.314,4.157,18.659,9.331,37.693,9.331H185h0.001   c0.001,0,0.003,0,0.003,0c19.033,0,29.38-5.174,37.693-9.33c7.156-3.579,12.329-6.165,24.285-6.165h0.001h0.001   c11.953,0,17.125,2.586,24.282,6.164c8.314,4.157,18.659,9.331,37.693,9.331h0.007c19.045,0,29.389-5.175,37.7-9.333   C354.075,241.792,357.076,232.781,353.37,225.373z"/>
	<path style="fill:#FF017B;" d="M353.37,225.373c-3.707-7.409-12.72-10.412-20.127-6.703c-7.15,3.578-12.317,6.162-24.277,6.162   c-11.954,0.001-17.126-2.584-24.282-6.164c-8.316-4.157-18.663-9.331-37.699-9.331h-0.001h-0.001   c-19.039,0-29.387,5.175-37.702,9.333c-7.157,3.578-12.325,6.162-24.276,6.162c0,0-0.002,0-0.003,0v30c0.001,0,0.003,0,0.003,0   c19.033,0,29.38-5.174,37.693-9.33c7.156-3.579,12.329-6.165,24.285-6.165h0.001h0.001c11.953,0,17.125,2.586,24.282,6.164   c8.314,4.157,18.659,9.331,37.693,9.331h0.007c19.045,0,29.389-5.175,37.7-9.333C354.075,241.792,357.076,232.781,353.37,225.373z"/>
</g>















</svg>